<svg xmlns="http://www.w3.org/2000/svg" viewBox="0 0 192 192"><path fill="#fff" d="M163.643 163.637h-28.864v-50.084c0-14.776-6.282-19.333-14.385-19.333-8.564 0-16.962 6.445-16.962 19.701v49.716H74.567V71.94h27.76v12.704h.368c2.793-5.645 12.543-15.283 27.436-15.283 16.106 0 33.512 9.555 33.512 37.563zM42.795 59.163c-9.192 0-16.642-6.995-16.642-16.568 0-9.574 7.45-16.576 16.642-16.576 9.19 0 16.641 7.002 16.641 16.576 0 9.573-7.45 16.568-16.641 16.568zm14.432 104.405H28.363v-91.7h28.864ZM177.832 0H14.173C6.345 0 .001 6.345.001 14.173v163.654C0 185.655 6.345 192 14.173 192h163.659c7.828 0 14.173-6.345 14.173-14.173V14.173C192.005 6.345 185.66 0 177.832 0"/></svg>